<?xml version="1.0" encoding="UTF-8" standalone="no"?>
<svg width="90px" height="66px" viewBox="0 0 90 66" version="1.1" xmlns="http://www.w3.org/2000/svg" xmlns:xlink="http://www.w3.org/1999/xlink">
    <!-- Generator: Sketch 3.8.3 (29802) - http://www.bohemiancoding.com/sketch -->
    <title>Shape</title>
    <desc>Created with Sketch.</desc>
    <defs></defs>
    <g id="Page-1" stroke="none" stroke-width="1" fill="none" fill-rule="evenodd">
        <g id="noun_100416_cc" fill="#000000">
            <g id="Group">
                <path d="M86.043956,8.41780822 C88.2288188,8.41780822 90,6.62694722 90,4.41780822 C90,2.20866922 88.2288188,0.417808219 86.043956,0.417808219 L3.95604396,0.417808219 C1.77118121,0.417808219 0,2.20866922 0,4.41780822 C0,6.62694722 1.77118121,8.41780822 3.95604396,8.41780822 L86.043956,8.41780822 L86.043956,8.41780822 Z M86.043956,36.8356164 C88.2288188,36.8356164 90,35.0447554 90,32.8356164 C90,30.6264774 88.2288188,28.8356164 86.043956,28.8356164 L3.95604396,28.8356164 C1.77118121,28.8356164 0,30.6264774 0,32.8356164 C0,35.0447554 1.77118121,36.8356164 3.95604396,36.8356164 L86.043956,36.8356164 L86.043956,36.8356164 Z M86.043956,65.2534247 C88.2288188,65.2534247 90,63.4625637 90,61.2534247 C90,59.0442857 88.2288188,57.2534247 86.043956,57.2534247 L3.95604396,57.2534247 C1.77118121,57.2534247 0,59.0442857 0,61.2534247 C0,63.4625637 1.77118121,65.2534247 3.95604396,65.2534247 L86.043956,65.2534247 L86.043956,65.2534247 Z" id="Shape"></path>
            </g>
        </g>
    </g>
</svg>